<svg width="24" height="17" viewBox="0 0 24 17" fill="none" xmlns="http://www.w3.org/2000/svg">
<path d="M14.1538 12.9028C14.1538 10.1838 16.3579 7.97968 19.0769 7.97968C21.7958 7.97968 24 10.1838 24 12.9028V17.0001H14.1538V12.9028Z" fill="#E3E3E3"/>
<ellipse cx="19.0769" cy="6.24495" rx="3.36842" ry="3.81633" fill="#E3E3E3"/>
<path d="M0 12.9028C0 10.1838 2.20414 7.97968 4.92308 7.97968C7.64202 7.97968 9.84615 10.1838 9.84615 12.9028V17.0001H0V12.9028Z" fill="#E2E2E2"/>
<ellipse cx="4.92311" cy="6.24495" rx="3.36842" ry="3.81633" fill="#E2E2E2"/>
<path d="M6.15381 12.3223C6.15381 9.09358 8.77122 6.47617 12 6.47617C15.2287 6.47617 17.8461 9.09358 17.8461 12.3223V17H6.15381V12.3223Z" fill="#F9F8F8"/>
<ellipse cx="12" cy="4.45235" rx="4" ry="4.45238" fill="#F9F8F8"/>
</svg>
